#!OML:ASF H:\ManfredObstacles\Project 1\Capture day 2\Session 1\male.ASF
:FULLY-SPECIFIED
:DEGREES
208
root 3.19526 14.8856 8.86604 -156.757 -23.5908 180.534
lowerback 36.8871 3.26353 0.175879
upperback 16.9587 -0.57728 1.35228
thorax 0.310573 -2.07976 1.49182
lowerneck -29.7174 -2.98652 -0.304074
upperneck 23.6058 -6.27919 6.49872
head 13.0948 -1.87051 1.35822
rclavicle 1.42131e-014 4.53229e-014
rhumerus -14.8487 8.90872 -95.6218
rradius 78.2907
rwrist 38.0314
rhand -12.5213 -11.7146
rfingers 7.12502
rthumb 13.5546 -41.2534
lclavicle 1.42131e-014 4.53229e-014
lhumerus -10.5704 -40.988 85.0637
lradius 76.3282
lwrist -27.2532
lhand -15.2346 19.6058
lfingers 7.12502
lthumb 10.9385 49.3009
rfemur -60.6823 -7.10328 35.4575
rtibia 49.5613
rfoot -8.3304 -17.3472
rtoes -13.9955
lfemur -59.3697 -9.93664 -9.28333
ltibia 85.4644
lfoot -0.336685 31.2194
ltoes -3.55352
209
root 3.18213 14.8718 8.75376 -156.618 -23.4221 180.627
lowerback 36.6676 3.20383 0.376603
upperback 16.9809 -0.580638 1.25279
thorax 0.408428 -2.05812 1.27953
lowerneck -29.6514 -2.99831 -0.299824
upperneck 23.5533 -6.32601 6.59762
head 13.0681 -1.88027 1.38658
rclavicle -3.03147e-014 4.00303e-014
rhumerus -14.5661 8.79704 -95.6491
rradius 77.6535
rwrist 37.8824
rhand -12.4805 -11.5891
rfingers 7.12502
rthumb 13.5939 -41.1252
lclavicle -3.03147e-014 4.00303e-014
lhumerus -10.8649 -41.2553 85.2022
lradius 77.5703
lwrist -27.3982
lhand -15.3606 19.3211
lfingers 7.12502
lthumb 10.8169 49.0225
rfemur -60.6417 -7.20972 35.8243
rtibia 49.9714
rfoot -9.07758 -17.3227
rtoes -14.009
lfemur -61.0329 -10.3791 -9.08363
ltibia 84.6802
lfoot -0.380796 30.923
ltoes -3.66584
210
root 3.17513 14.8656 8.63247 -156.785 -23.1919 180.745
lowerback 36.8319 3.27522 0.489786
upperback 17.0242 -0.498899 1.18809
thorax 0.403601 -2.02082 1.1286
lowerneck -29.6118 -3.02919 -0.271413
upperneck 23.5053 -6.40665 6.68413
head 13.0485 -1.90323 1.39938
rclavicle 3.21037e-014 3.32592e-014
rhumerus -14.2945 8.66435 -95.6816
rradius 77.0576
rwrist 37.71
rhand -12.4192 -11.491
rfingers 7.12502
rthumb 13.653 -41.0232
lclavicle 3.21037e-014 3.32592e-014
lhumerus -11.1159 -41.5904 85.3107
lradius 78.721
lwrist -27.4641
lhand -15.5306 19.0219
lfingers 7.12502
lthumb 10.653 48.7319
rfemur -60.1661 -7.25228 36.1085
rtibia 50.3632
rfoot -9.9465 -17.4054
rtoes -13.9674
lfemur -62.1741 -10.774 -8.8943
ltibia 83.6381
lfoot -0.488853 30.6182
ltoes -3.81243
211
root 3.16479 14.8519 8.5143 -156.804 -23.0203 180.805
lowerback 36.8119 3.27788 0.647292
upperback 17.0638 -0.465521 1.09947
thorax 0.455818 -1.99403 0.94163
lowerneck -29.6085 -3.05428 -0.218453
upperneck 23.499 -6.48014 6.72525
head 13.0494 -1.92501 1.39208
rclavicle -1.23246e-014 -8.24956e-015
rhumerus -14.0491 8.57756 -95.702
rradius 76.4902
rwrist 37.5638
rhand -12.37 -11.4249
rfingers 7.12502
rthumb 13.7005 -40.9539
lclavicle -1.23246e-014 -8.24956e-015
lhumerus -11.3704 -41.9166 85.4355
lradius 79.785
lwrist -27.5149
lhand -15.7027 18.7597
lfingers 7.12502
lthumb 10.4869 48.4781
rfemur -59.894 -7.31701 36.3517
rtibia 50.8092
rfoot -10.7988 -17.4906
rtoes -13.8694
lfemur -63.4871 -11.2272 -8.68677
ltibia 82.4433
lfoot -0.51585 30.2761
ltoes -3.97785
212
root 3.15986 14.8445 8.38889 -157.087 -22.7718 180.896
lowerback 37.1306 3.39037 0.664272
upperback 17.1061 -0.38069 1.07034
thorax 0.399975 -1.9707 0.879411
lowerneck -29.6027 -3.06736 -0.209616
upperneck 23.5076 -6.51038 6.74407
head 13.0539 -1.9347 1.39207
rclavicle -4.62174e-014 3.66758e-014
rhumerus -13.8403 8.60133 -95.6868
rradius 75.9566
rwrist 37.439
rhand -12.2946 -11.3997
rfingers 7.12502
rthumb 13.7731 -40.9238
lclavicle -4.62174e-014 3.66758e-014
lhumerus -11.6494 -42.1702 85.624
lradius 80.7531
lwrist -27.565
lhand -15.8846 18.5293
lfingers 7.12502
lthumb 10.3115 48.2565
rfemur -59.2607 -7.31223 36.5273
rtibia 51.2613
rfoot -11.714 -17.6331
rtoes -13.7471
lfemur -64.33 -11.6055 -8.50835
ltibia 81.009
lfoot -0.570285 29.9649
ltoes -4.22878
213
root 3.14653 14.8322 8.2664 -157.236 -22.9168 180.815
lowerback 37.3472 3.21716 0.920171
upperback 17.1361 -0.545796 1.04817
thorax 0.371671 -2.0447 0.776566
lowerneck -29.5672 -3.05521 -0.234877
upperneck 23.5188 -6.4764 6.72452
head 13.0499 -1.92562 1.39558
rclavicle -3.47873e-016 -2.00648e-014
rhumerus -13.6684 8.75742 -95.6291
rradius 75.4484
rwrist 37.3313
rhand -12.2334 -11.4061
rfingers 7.12502
rthumb 13.8321 -40.9262
lclavicle -3.47873e-016 -2.00648e-014
lhumerus -11.9618 -42.3259 85.8874
lradius 81.6188
lwrist -27.6641
lhand -16.048 18.3323
lfingers 7.12502
lthumb 10.1538 48.0672
rfemur -58.8476 -7.67065 36.6494
rtibia 51.8295
rfoot -12.6614 -17.7925
rtoes -13.6216
lfemur -65.3468 -12.3811 -8.31854
ltibia 79.4168
lfoot -0.439121 29.6319
ltoes -4.47658
214
root 3.12616 14.8144 8.1469 -157.232 -23.3661 180.593
lowerback 37.4185 2.8277 1.43428
upperback 17.1632 -0.866755 0.985908
thorax 0.390563 -2.16435 0.544003
lowerneck -29.5227 -3.05266 -0.214753
upperneck 23.5139 -6.47705 6.71115
head 13.0382 -1.92729 1.38709
rclavicle 1.26725e-014 6.3872e-014
rhumerus -13.5135 8.83957 -95.59
rradius 74.9876
rwrist 37.2495
rhand -12.1543 -11.4221
rfingers 7.12502
rthumb 13.9083 -40.9369
lclavicle 1.26725e-014 6.3872e-014
lhumerus -12.2423 -42.5725 86.1197
lradius 82.3983
lwrist -27.7935
lhand -16.1729 18.1651
lfingers 7.12502
lthumb 10.0334 47.906
rfemur -58.6659 -8.30288 36.7328
rtibia 52.4809
rfoot -13.5959 -17.9494
rtoes -13.5314
lfemur -66.5311 -13.4367 -8.11978
ltibia 77.6664
lfoot -0.142931 29.264
ltoes -4.69773
215
root 3.10574 14.7907 8.02925 -157.1 -23.7214 180.368
lowerback 37.3064 2.4842 1.90135
upperback 17.188 -1.12964 0.893439
thorax 0.459864 -2.24919 0.282397
lowerneck -29.4887 -3.06364 -0.164572
upperneck 23.4997 -6.50895 6.69703
head 13.0252 -1.93974 1.3671
rclavicle 2.45002e-014 -1.19022e-014
rhumerus -13.3762 8.87019 -95.5667
rradius 74.5659
rwrist 37.1763
rhand -12.0742 -11.4366
rfingers 7.12502
rthumb 13.9855 -40.9461
lclavicle 2.45002e-014 -1.19022e-014
lhumerus -12.5007 -42.8823 86.3367
lradius 83.0948
lwrist -27.9525
lhand -16.277 18.0102
lfingers 7.12502
lthumb 9.93292 47.7559
rfemur -58.669 -8.81744 36.8025
rtibia 53.2042
rfoot -14.4727 -18.0826
rtoes -13.5255
lfemur -67.787 -14.3408 -7.93495
ltibia 75.8098
lfoot 0.221243 28.8875
ltoes -4.84265
216
root 3.08758 14.7656 7.91083 -156.952 -23.9312 180.185
lowerback 37.1496 2.24876 2.29298
upperback 17.2153 -1.28428 0.786425
thorax 0.542533 -2.28425 0.00948006
lowerneck -29.4976 -3.09696 -0.0828054
upperneck 23.4906 -6.5916 6.69535
head 13.0243 -1.96824 1.33661
rclavicle 1.8313e-014 1.8692e-014
rhumerus -13.238 8.81158 -95.5621
rradius 74.165
rwrist 37.1213
rhand -12.0334 -11.4192
rfingers 7.12502
rthumb 14.0248 -40.926
lclavicle 1.8313e-014 1.8692e-014
lhumerus -12.7178 -43.2722 86.5257
lradius 83.6942
lwrist -28.1601
lhand -16.3426 17.8581
lfingers 7.12502
lthumb 9.86965 47.6067
rfemur -58.6655 -9.16873 36.8666
rtibia 53.8819
rfoot -15.2813 -18.21
rtoes -13.5928
lfemur -68.9443 -15.0482 -7.76569
ltibia 73.8344
lfoot 0.601678 28.5076
ltoes -4.88618
217
root 3.07343 14.7368 7.79318 -156.72 -23.7909 180.107
lowerback 36.8352 2.22549 2.43099
upperback 17.2369 -1.2536 0.674752
thorax 0.666202 -2.24187 -0.197444
lowerneck -29.5232 -3.13482 -0.0189219
upperneck 23.4798 -6.67118 6.69147
head 13.026 -1.99678 1.30876
rclavicle 2.33075e-014 7.30891e-014
rhumerus -13.1133 8.76187 -95.5567
rradius 73.7836
rwrist 37.0486
rhand -12.0259 -11.3913
rfingers 7.12502
rthumb 14.0321 -40.8976
lclavicle 2.33075e-014 7.30891e-014
lhumerus -12.9323 -43.637 86.7395
lradius 84.1973
lwrist -28.4108
lhand -16.3822 17.7033
lfingers 7.12502
lthumb 9.83146 47.4537
rfemur -58.7198 -9.15075 36.9399
rtibia 54.4584
rfoot -15.9491 -18.3105
rtoes -13.7909
lfemur -70.0729 -15.3525 -7.61882
ltibia 71.7756
lfoot 0.994726 28.1083
ltoes -4.84691
